<svg width="17" height="14" viewBox="0 0 17 14" fill="none" xmlns="http://www.w3.org/2000/svg">
<path d="M1.20895 8.22315C0.786628 7.80102 0.786628 7.11547 1.20895 6.69334L6.61466 1.29005C7.03698 0.867915 7.72283 0.867915 8.14515 1.29005C8.56747 1.71218 8.56747 2.39772 8.14515 2.81986L4.58076 6.37927L14.9462 6.37928C15.5442 6.37928 16.0273 6.8622 16.0273 7.45994C16.0273 8.05768 15.5442 8.54059 14.9462 8.54059L4.58414 8.54059L8.14177 12.1C8.56409 12.5221 8.56409 13.2077 8.14177 13.6298C7.71945 14.052 7.0336 14.052 6.61128 13.6298L1.20557 8.22653L1.20895 8.22315Z" fill="white"/>
</svg>
