<svg width="22" height="24" viewBox="0 0 22 24" fill="none" xmlns="http://www.w3.org/2000/svg">
<path d="M18.0093 3.5801C16.7886 2.40496 14.8076 2.40496 13.587 3.5801L4.3823 12.4418C2.27623 14.4694 2.27623 17.754 4.3823 19.7816C6.48838 21.8092 9.90012 21.8092 12.0062 19.7816L19.6101 12.461C20.1554 11.9361 21.0458 11.9361 21.5911 12.461C22.1364 12.986 22.1364 13.8433 21.5911 14.3682L13.9872 21.6888C10.7856 24.7711 5.60293 24.7711 2.40129 21.6888C-0.800348 18.6064 -0.800348 13.6169 2.40129 10.5346L11.606 1.67291C13.9222 -0.556964 17.6741 -0.556964 19.9903 1.67291C22.3065 3.90278 22.3065 7.51488 19.9903 9.74475L11.1858 18.2211C9.75505 19.5986 7.43386 19.5986 6.00313 18.2211C4.5724 16.8437 4.5724 14.609 6.00313 13.2316L13.2068 6.29639C13.7521 5.77144 14.6425 5.77144 15.1878 6.29639C15.7331 6.82135 15.7331 7.67863 15.1878 8.20358L7.98414 15.1388C7.64897 15.4615 7.64897 15.9913 7.98414 16.314C8.31932 16.6366 8.8696 16.6366 9.20477 16.314L18.0093 7.83756C19.2299 6.66242 19.2299 4.75523 18.0093 3.5801Z" fill="white"/>
</svg>
