<?xml version="1.0" encoding="UTF-8" standalone="no"?><svg xmlns:svg="http://www.w3.org/2000/svg" xmlns="http://www.w3.org/2000/svg" xmlns:xlink="http://www.w3.org/1999/xlink" version="1.0" width="100px" height="100px" viewBox="0 0 128 128" xml:space="preserve"><g><path d="M63.88 0a8.02 8.02 0 1 1-8.02 8.02A8.02 8.02 0 0 1 63.88 0zm0 32.06a4 4 0 1 1-4 4 4 4 0 0 1 4-4zm0-14.02a6 6 0 1 1-6.02 6 6 6 0 0 1 6.02-6z" fill="#7367f0"/><path d="M63.88 0a8.02 8.02 0 1 1-8.02 8.02A8.02 8.02 0 0 1 63.88 0zm0 32.06a4 4 0 1 1-4 4 4 4 0 0 1 4-4zm0-14.02a6 6 0 1 1-6.02 6 6 6 0 0 1 6.02-6z" fill="#fbfbff" transform="rotate(30 64 64)"/><path d="M63.88 0a8.02 8.02 0 1 1-8.02 8.02A8.02 8.02 0 0 1 63.88 0zm0 32.06a4 4 0 1 1-4 4 4 4 0 0 1 4-4zm0-14.02a6 6 0 1 1-6.02 6 6 6 0 0 1 6.02-6z" fill="#f2f1fe" transform="rotate(60 64 64)"/><path d="M63.88 0a8.02 8.02 0 1 1-8.02 8.02A8.02 8.02 0 0 1 63.88 0zm0 32.06a4 4 0 1 1-4 4 4 4 0 0 1 4-4zm0-14.02a6 6 0 1 1-6.02 6 6 6 0 0 1 6.02-6z" fill="#e7e5fc" transform="rotate(90 64 64)"/><path d="M63.88 0a8.02 8.02 0 1 1-8.02 8.02A8.02 8.02 0 0 1 63.88 0zm0 32.06a4 4 0 1 1-4 4 4 4 0 0 1 4-4zm0-14.02a6 6 0 1 1-6.02 6 6 6 0 0 1 6.02-6z" fill="#dbd8fb" transform="rotate(120 64 64)"/><path d="M63.88 0a8.02 8.02 0 1 1-8.02 8.02A8.02 8.02 0 0 1 63.88 0zm0 32.06a4 4 0 1 1-4 4 4 4 0 0 1 4-4zm0-14.02a6 6 0 1 1-6.02 6 6 6 0 0 1 6.02-6z" fill="#cecafa" transform="rotate(150 64 64)"/><path d="M63.88 0a8.02 8.02 0 1 1-8.02 8.02A8.02 8.02 0 0 1 63.88 0zm0 32.06a4 4 0 1 1-4 4 4 4 0 0 1 4-4zm0-14.02a6 6 0 1 1-6.02 6 6 6 0 0 1 6.02-6z" fill="#c1bcf8" transform="rotate(180 64 64)"/><path d="M63.88 0a8.02 8.02 0 1 1-8.02 8.02A8.02 8.02 0 0 1 63.88 0zm0 32.06a4 4 0 1 1-4 4 4 4 0 0 1 4-4zm0-14.02a6 6 0 1 1-6.02 6 6 6 0 0 1 6.02-6z" fill="#b2acf7" transform="rotate(210 64 64)"/><path d="M63.88 0a8.02 8.02 0 1 1-8.02 8.02A8.02 8.02 0 0 1 63.88 0zm0 32.06a4 4 0 1 1-4 4 4 4 0 0 1 4-4zm0-14.02a6 6 0 1 1-6.02 6 6 6 0 0 1 6.02-6z" fill="#a49df5" transform="rotate(240 64 64)"/><path d="M63.88 0a8.02 8.02 0 1 1-8.02 8.02A8.02 8.02 0 0 1 63.88 0zm0 32.06a4 4 0 1 1-4 4 4 4 0 0 1 4-4zm0-14.02a6 6 0 1 1-6.02 6 6 6 0 0 1 6.02-6z" fill="#978ef4" transform="rotate(270 64 64)"/><path d="M63.88 0a8.02 8.02 0 1 1-8.02 8.02A8.02 8.02 0 0 1 63.88 0zm0 32.06a4 4 0 1 1-4 4 4 4 0 0 1 4-4zm0-14.02a6 6 0 1 1-6.02 6 6 6 0 0 1 6.02-6z" fill="#8a80f2" transform="rotate(300 64 64)"/><path d="M63.88 0a8.02 8.02 0 1 1-8.02 8.02A8.02 8.02 0 0 1 63.88 0zm0 32.06a4 4 0 1 1-4 4 4 4 0 0 1 4-4zm0-14.02a6 6 0 1 1-6.02 6 6 6 0 0 1 6.02-6z" fill="#7f74f1" transform="rotate(330 64 64)"/><animateTransform attributeName="transform" type="rotate" values="0 64 64;30 64 64;60 64 64;90 64 64;120 64 64;150 64 64;180 64 64;210 64 64;240 64 64;270 64 64;300 64 64;330 64 64" calcMode="discrete" dur="960ms" repeatCount="indefinite"></animateTransform></g></svg>