<svg width="6" height="21" viewBox="0 0 6 21" fill="none" xmlns="http://www.w3.org/2000/svg">
<path d="M2.85721 15.4868C1.28068 15.4868 6.96182e-05 16.6903 6.96182e-05 18.172C6.96182e-05 19.6536 1.28068 20.8572 2.85721 20.8572C4.43374 20.8572 5.71436 19.6536 5.71436 18.172C5.71436 16.6903 4.43374 15.4868 2.85721 15.4868ZM2.85721 7.81484C1.28068 7.81484 6.96182e-05 9.01838 6.96182e-05 10.5C6.96182e-05 11.9817 1.28068 13.1852 2.85721 13.1852C4.43374 13.1852 5.71436 11.9817 5.71436 10.5C5.71436 9.01838 4.43374 7.81484 2.85721 7.81484ZM6.96182e-05 2.82807C6.96182e-05 4.30972 1.28068 5.51325 2.85721 5.51325C4.43374 5.51325 5.71436 4.30972 5.71436 2.82807C5.71436 1.34642 4.43374 0.142883 2.85721 0.142883C1.28068 0.142883 6.96182e-05 1.34642 6.96182e-05 2.82807Z" fill="white"/>
</svg>
