<svg width="12" height="11" viewBox="0 0 12 11" fill="none" xmlns="http://www.w3.org/2000/svg">
<path d="M9.43576 4.46875C9.43576 5.45488 9.10675 6.36582 8.55252 7.10488L11.348 9.82695C11.624 10.0955 11.624 10.5316 11.348 10.8002C11.072 11.0687 10.6237 11.0687 10.3477 10.8002L7.55224 8.07812C6.79265 8.61953 5.85641 8.9375 4.84288 8.9375C2.30576 8.9375 0.25 6.9373 0.25 4.46875C0.25 2.0002 2.30576 0 4.84288 0C7.38001 0 9.43576 2.0002 9.43576 4.46875ZM4.84288 7.5625C6.59833 7.5625 8.02257 6.17676 8.02257 4.46875C8.02257 2.76074 6.59833 1.375 4.84288 1.375C3.08743 1.375 1.66319 2.76074 1.66319 4.46875C1.66319 6.17676 3.08743 7.5625 4.84288 7.5625Z" fill="#3D3D3D"/>
</svg>
